<?xml version="1.0" encoding="UTF-8"?><svg id="uuid-e42d3124-8179-403f-91de-b594967d8a5e" xmlns="http://www.w3.org/2000/svg" width="242.47945" height="224.02752" viewBox="0 0 242.47945 224.02752"><path id="uuid-4994d56b-1f47-4c81-9f26-a6e9758a9a8a" d="M242.3598,110.39741c.42004.64-.33997,1.86-1.13,2.57001-.55005.4558-1.17175.81735-1.83997,1.07001-1.53198.70094-3.01245,1.50964-4.43005,2.42-2.91003,1.85001-5.51001,4-8.39001,5.8-2.91736,1.68585-5.96753,3.13066-9.12,4.32001-5.05615,2.10223-10.22791,3.91516-15.48999,5.42999-3.77222,1.07176-7.62476,1.83759-11.52002,2.28999-5.28088.45512-10.58679.54533-15.88.27l-11-.38c-1.37634-.09026-2.59644.87892-2.81995,2.24001-.12207.62686-.28577,1.2449-.48999,1.85001-.60999,1.72-1.68005,3.28999-2.15002,5-.29004,1.10001-.33997,2.27-.60999,3.39-.31702,1.23853-.82654,2.41959-1.51001,3.5-.26001.42-.53003.82001-.80005,1.22-.12524.17671-.12524.41328,0,.59.48157.64508.90015,1.33492,1.25,2.06.77222,2.10725.87695,4.40114.30005,6.57001-.78003,3.64999-2.51001,6.86-3.20996,10.37-.34717,2.11887-.5177,4.26289-.51001,6.41-.08997,2.89-.20996,5.75-.27002,8.61-.07996,3-.08997,6.08-.14001,9.14-.06384,1.83841-.00708,3.67903.17004,5.50999.23999,1.94.77002,3.84,1.07996,5.78.203,1.27972.29663,2.57439.28003,3.87.0116.95284-.11292,1.90244-.37,2.82001-.20227.79807-.62097,1.5248-1.20996,2.10001-.65942.53345-1.45056.87894-2.29004,1-.38696.0323-.76233.14832-1.09998.34-.35828.36186-.61072.8149-.72998,1.31-.25061.63303-.58716,1.22861-1,1.77-.44519.68694-1.09619,1.21547-1.85999,1.50999-.47375.09735-.96057.11424-1.43994.05l-.42004.75999c-.15002.28999-.28003.55-.47998.89999-.29004.5-.70996,1.17999-.93994,1.17s-.26001-1.08-.26001-1.87c.04932-.59671-.01514-1.19734-.18994-1.77-.27063-.51143-.50122-1.04301-.68994-1.59-.07312-.53856-.03564-1.08638.10999-1.61-.68738.03572-1.36365.18788-2,.45-.43201.24893-.84033.5368-1.21997.86-.45117.37988-.96118.68384-1.51001.89999-.70276.21793-1.44885.25575-2.17004.11-.52417-.14792-1.07617-.16849-1.60999-.06-.55334.27681-.96899.76836-1.15002,1.36-.18994.49001-.28003,1-.69995,1.28-.2522.18718-.573.25642-.88.19-.40002-.14999-.38-.86-.35999-1.47.0033-.90532.05334-1.80986.15002-2.71001.07996-.63.21997-1.31.37-2-.32043.13672-.65613.2341-1,.28999-.38733.04475-.77942.02448-1.16003-.06-.57031-.05063-1.10645-.29399-1.52002-.69-.21997-.25999-.38-.60001-.63-.74001s-.89001,0-1.31006.23c-.48389.25275-.91772.59161-1.28003,1-.45996.48-1,1.16-1.29004,1.12s-.21997-1.19-.07996-2.07001c.04871-.82054.349-1.60617.85999-2.25.604-.58145,1.34265-1.00406,2.15002-1.23.57751-.17339,1.16528-.31032,1.76001-.41.40417-.28665.84045-.52495,1.30005-.71001,1.05005-.36,2.31006-.14999,3.29004-.62.39258-.20757.75574-.46652,1.07996-.77,1.70972-1.34607,3.32043-2.81317,4.81995-4.39.59302-.58929,1.05322-1.29845,1.34998-2.08.18835-.9276.2356-1.87831.14001-2.82001.05481-1.71342.25208-3.41933.58997-5.10001.23999-1.55.41003-3.12.69995-4.67.54529-2.11459.97266-4.25789,1.27991-6.41995.08997-1.23,0-2.46001,0-3.72.11011-1.77893-.09644-3.56328-.60999-5.27-.46313-1.00592-1.02954-1.96104-1.68994-2.85001-1.64771-2.48766-3.03503-5.13829-4.14001-7.91-.79565-1.77242-1.32458-3.65277-1.56995-5.58-.19995-2.31.28003-4.72-.27002-6.92999-.26001-.86081-.5946-1.69731-1-2.5-.63-1.38-1.25-2.74001-1.88-4.10001-.12671-.27153-.41211-.43234-.70996-.39999-2.76367.40671-5.5625.52066-8.34998.34-1.28162-.14204-2.55383-.35907-3.81006-.64999-.26013-.06244-.53284.03108-.69995.24001-.16956.20575-.20093.49243-.07996.73.58997,1.25,1.17004,2.50999,1.67004,3.78999,1.22705,3.22702,2.08911,6.58122,2.56995,10,.43994,2.89.66003,5.78999.88,8.71001.11304,2.35034.3938,4.68962.83997,7,.18005.82001.41003,1.63.52002,2.45.13013,1.2065.13013,2.42351,0,3.63-.02441.67654-.12842,1.34784-.31006,2-.48462,1.09132-1.13208,2.10281-1.92004,3-1.38477,2.03806-2.58289,4.19679-3.57996,6.45-1.2417,2.22786-2.15771,4.62221-2.71997,7.11-.15198,1.11734-.23877,2.24257-.26001,3.37-.01501.96028-.15283,1.91469-.41003,2.84-.19397.65015-.50952,1.25757-.93005,1.78999-.93298,1.07674-2.18848,1.82373-3.57996,2.13-.87476.15187-1.73462.37939-2.56995.67999-.69995.32001-1.31006.87-2,1.23-.82483.33559-1.6698.61946-2.53003.85001-1.17163.54999-2.38977.99506-3.64001,1.33-.74316.13588-1.5105.00859-2.17004-.36-.20093-.15662-.43835-.25981-.68994-.3-.31995,0-.57996.39-.76001.72-.15295.29045-.27686.59526-.37.91-.13.37-.28003.85001-.46997.92s-.63-.60001-.80005-1.2c-.22876-.85512-.12891-1.76491.28003-2.55l.56006-1.35001c-.44946.14574-.90686.26593-1.37.36-1.07776.20247-2.18665.16835-3.25-.10001-.59998-.16-1.16003-.41-1.77002-.64-.8158-.41991-1.74048-.58041-2.65002-.46001-.62561.17859-1.1366.63081-1.39001,1.23-.23999.53999-.33997,1.25999-.68005,1.28999-.21497-.00851-.41418-.11546-.54004-.28999-.33496-.47629-.4613-1.06848-.34998-1.64.02332-.31523.06335-.62901.12-.94.0769-.56633.25293-1.1147.52002-1.62-.41003.28-.81995.57001-1,.47s-.13-.77,0-1.3c.10864-.80176.39941-1.56801.84998-2.24001.40112-.56703.91943-1.04109,1.52002-1.39.82581-.44382,1.77844-.59201,2.69995-.42.32629.08376.66455.11082,1,.08.28027-.09572.54871-.22322.80005-.38.83118-.25746,1.70068-.36911,2.56995-.33.88098-.09688,1.72168-.42078,2.43994-.94.59998-.45,1.08997-1,1.67004-1.46001,1.18994-.87,2.73999-1,4.28003-1.50999,1.93005-.60001,3.81995-1.69,4.56006-3.39.24133-.67905.43506-1.37405.57996-2.08.50085-1.54286,1.17175-3.02528,2-4.42.87292-1.61139,1.63147-3.28218,2.27002-5,.43604-1.1212.74133-2.28889.91003-3.48.13684-1.32982.13684-2.67018,0-4,.15332-3.27188-1.0813-6.45653-3.40002-8.77-1.35999-1.60001-2.70996-3.17-4.15002-4.67999-2.13-2.23-4.45996-4.32001-6.15002-6.92999-.82666-1.5303-1.78003-2.98872-2.84998-4.36-.84998-.92999-1.93994-1.66-2.84998-2.58-1.2478-1.24165-2.13879-2.79588-2.57996-4.5-.38-1.56-.31006-3.19-.56006-4.78-.19995-1.33-.63-2.62-.83997-3.94-.1936-1.35088-.24719-2.71812-.16003-4.08.0127-.27797-.14038-.53708-.39001-.66-.25024-.1234-.55017-.08392-.76001.10001-.22998.2-.46997.39-.71997.58-.89978.69252-1.88867,1.26096-2.93994,1.69-1.38892.49149-2.8175.86284-4.27002,1.11-1.70483.32205-3.37805.79388-5,1.41-1.21997.48-2.38,1.11-3.54999,1.71001-1.53009.79636-3.1062,1.50093-4.71997,2.11-1.84003.64999-3.79999,1.14999-5.19,2.47-1.04871,1.02113-1.70972,2.37509-1.87,3.83-.09418,1.03584.1106,2.07697.59003,3,.14172.36501.40247.67152.73999.87.38.16.90002,0,1.31.14.57831.18515.97833.71318,1,1.32001.06.45,0,1-.27002,1.06s-.53998-.13-.84003-.22c-.44324-.1105-.90674-.1105-1.34998,0-.29126.04962-.58875.04962-.88,0-.52002-.08-.95001-.41-1.53003-.56-.17297-.07112-.367-.07112-.53998,0-.08154.07576-.14038.1727-.16998.28-.02917.19559-.02917.39441,0,.59-.01294.31654.02075.63327.09998.94.07709.19817.18884.38103.33002.53999.38104.54985.97668.91307,1.64001,1,.25,0,.5-.05.72998,0,.43243.0974.85193.24507,1.25.44.46997.16,1,.2,1.25.53999.15613.39297.09949.83859-.15002,1.17999-.21881.34933-.58923.57532-1,.61-.42255.01698-.84418-.05103-1.23999-.2-.38086-.12134-.78131-.16885-1.17999-.14-.46002,0-.95001.25-1.33002,0-.21997-.14-.40002-.42-.60999-.44s-.40002.14999-.60999.25999c-.38403.16-.81598.16-1.20001,0-.59003-.2-1.07001-.63-1.65002-.89-.5462-.15405-1.06317-.39734-1.53003-.72-.31-.28-.47998-.74001-.81-1-.27222-.17896-.56006-.33293-.85999-.46001-.61304-.37567-1.02441-1.00739-1.12-1.72-.04071-.33209-.04071-.66791,0-1,.09003-.84.12-1.67999.15997-2.52.00092-1.98872.29401-3.96651.87-5.87.31409-.86638.73035-1.69221,1.23999-2.46001.56268-.85722,1.23505-1.63718,2-2.32001.7984-.70453,1.67004-1.3214,2.59998-1.84,1.38-.78999,2.83002-1.45,4.16998-2.25999,2.21997-1.35001,4.15002-3.16,6.34003-4.58,1.65338-1.07408,3.43799-1.93111,5.31-2.55,1.15778-.41367,2.37152-.64966,3.59998-.69994.39001.01933.78015-.03494,1.15002-.16.16138-.06584.30273-.1727.41003-.31.20874-.25758.28625-.59737.20996-.92-.12-.36-.54004-.57001-.84998-.85001-.4176-.42155-.72339-.94052-.89001-1.50999-.25-.64-.48999-1.27-.73999-1.89999-.42999-1.08-.90002-2.14-1.37-3.2-.09698-.20663-.28619-.35504-.51001-.39999-.83746-.12302-1.65063-.37607-2.41003-.75002-1.38867-.90442-2.47516-2.20338-3.12-3.73-.45886-1.02596-1.02893-1.99843-1.70001-2.89999-.19318-.24361-.52863-.32228-.81-.19-.284.11943-.45221.41484-.40997.72.03455.29576.08466.58949.15002.88.26038,1.02286.5946,2.0255,1,3,.68842,1.7159,1.18152,3.50381,1.46997,5.33.25677,1.49931.15393,3.03818-.29999,4.49001-.17743.55789-.45911,1.07706-.83002,1.53-.66351.67433-1.47998,1.17859-2.38,1.47-1.45593.54131-2.94171.99873-4.45001,1.37-1.49683.37004-2.95892.86855-4.37,1.49001-.93665.45906-1.8302,1.00124-2.66998,1.62-1.35736,1.1375-2.82074,2.14209-4.37,3-.91998.42-1.91998.67-3,1-.521.14098-.99213.42503-1.35999.82001-.22351.33371-.37036.71278-.42999,1.11-.17999.83-.28003,1.62-.40002,2.42999-.22998,1.47-.57001,3-.66998,4.45-.0069.73137-.07715,1.46075-.21002,2.17999-.1676.44295-.22253.92056-.15997,1.39.28638.57204.85211.95169,1.48999,1,.4657-.00555.93097.03127,1.39001.11.20966.07318.39606.20088.53998.37.35748.50296.35748,1.17703,0,1.67999-.21002.33-.54999.60001-.84998.53999-.18347-.07727-.35785-.17451-.52002-.28999-.5-.28-1.10999-.07001-1.67999-.09-.49005-.0354-.96558-.18248-1.39001-.42999-.16248-.09914-.33734-.17647-.52002-.23-.40308-.01761-.80524.05057-1.17999.2-.70599.21877-1.4751.03033-2-.49001-.39001-.48-.51001-1.28999-1-1.42h-.78998c-.77002-.10001-.78998-1.38-.69-2.39999.13-1.38.5-2.28.65002-3.32001.21002-1.39,0-3,.13-4.53999.11029-1.46974.44763-2.91353,1-4.28.48883-1.44891,1.29907-2.76849,2.37-3.86,1-.88,2.20001-1.46001,3.16998-2.33,1.32001-1.19,2.14001-2.91,3.38-4.16,1.16925-.99075,2.40552-1.89958,3.70001-2.72.70813-.64497,1.51074-1.1778,2.38-1.58.86774-.13673,1.70013-.44252,2.45001-.89999.2901-.21574.46954-.54906.48999-.91-.026-.20978-.10516-.40942-.22998-.58-.34003-.56-.78998-1-1.13-1.53999-.91998-1.42-1.06-3.3-1.59998-5-.53491-1.58978-1.37378-3.06039-2.46997-4.33-1.58002-1.87-3.54999-3.35001-5.25-5.13-1.06567-1.08533-1.96539-2.32198-2.66998-3.67-.23413-.50381-.50134-.99155-.79999-1.46-.29114-.37301-.62701-.70885-1-1-1.37244-1.27696-2.57861-2.72166-3.59003-4.3-2.03741-3.38639-3.44672-7.11283-4.15997-11-.57001-2.69-.90002-5.41-2-7.87-.62024-1.33807-1.33887-2.62827-2.15002-3.86-1.09003-1.72-2.15997-3.42-3.12-5.21-2.34369-4.27399-3.72906-9.00685-4.06-13.87-.06445-1.77942.00574-3.56117.21002-5.33.12274-.8175.14624-1.64685.07001-2.47-.09717-.64606-.33997-1.26157-.71002-1.8-.30713-.48937-.76263-.86778-1.29999-1.08-.56781-.13952-1.16327-.11874-1.71997.06-.65002.15-1.26001.37-1.89001.5-.83582.15368-1.68109.25056-2.53003.29-1.06421.18816-2.15503.16438-3.21002-.07-.73621-.2934-1.41364-.7168-2-1.25-.4538-.3041-.80292-.74054-1-1.25-.08466-.42069-.01355-.8578.20001-1.23.48285-.63977,1.12384-1.14292,1.85999-1.46.34998-.21228.6842-.44956,1-.71-.55859-.45533-1.07104-.96444-1.53003-1.52-.31641-.41859-.58478-.87144-.79999-1.35-.28998-.61-.65002-1.39-.34998-1.69s.88-.16,1.38,0c.4776.15502.9032.43875,1.22998.82.32532.45147.69006.87313,1.09003,1.26.21191.1598.43976.2972.67999.41v-.05c.43121-.77024.71283-1.61509.83002-2.49,0-.38.08002-.8-.14001-1-.1402-.11054-.30475-.18597-.47998-.22-.50958-.15242-1.05725-.1133-1.53998.11-.22998.13-.42999.32-.65997.43-.55048.2109-1.15955.2109-1.71002,0-.5481-.15167-1.0705-.38423-1.54999-.69-.68188-.44168-1.28656-.99234-1.78998-1.63-.71533-.7387-1.12292-1.72185-1.14001-2.75.14929-.74382.49451-1.43427,1-2,.44263-.60564.94885-1.16214,1.51001-1.66.62-.53,1.33002-.94,2-1.49,1-.85,1.75-2,2.87-2.51.91815-.27747,1.85352-.4946,2.79999-.65.75488-.25204,1.47937-.58745,2.15997-1,1.63-.94,3.28003-1.81,4.88-2.78,2.57001-1.56,5-3.39,7.67999-4.75,2.52313-1.21749,5.16333-2.17574,7.88-2.86C37.12366,1.21351,41.57941.42957,46.07996.09739c3.33765-.20888,6.68781-.08157,10,.38,3.03149.3528,5.98804,1.18307,8.76001,2.46,1.69208.84296,3.28235,1.87632,4.73999,3.08,1.75,1.42,3.34003,3,4.95001,4.57.9447.86971,1.80823,1.82365,2.57996,2.85.50159.68569.84326,1.475,1,2.31.16785,1.08987-.12158,2.20069-.80005,3.07-.40198.48606-.92688.85554-1.52002,1.07-.52429.17916-1.07617.26381-1.63.25-.2738.01376-.54785-.02007-.81006-.1-.76001-.29-1-1.34-1.5-2.11-.60901-.82887-1.39459-1.512-2.29999-2-1.57001-1-3-2.25-4.66998-3.13-2.07629-1.06636-4.33002-1.74417-6.65002-2-2.07269-.31483-4.18616-.2368-6.22998.23-1.37866.37547-2.66309,1.03641-3.77002,1.94001-.82294.65966-1.50336,1.47956-2,2.41-.51184.94646-.80566,1.99537-.85999,3.07-.00006,1.04169.0835,2.0817.25,3.11.32996,3.04556.10291,6.12573-.66998,9.09-1,3.52-2.79999,6.44-4,9.68-.75433,1.96613-1.242,4.02442-1.45001,6.12-.12097.80607-.06299,1.6289.16998,2.41.15552.37907.34991.741.58002,1.08.90997,1.45,1.78998,2.88,2.71002,4.28s1.76001,2.55,2.66998,3.81c.23059.33078.5979.54013,1,.57.40448.03345.80316-.11286,1.09003-.4,5.16998-5.18,10.40002-10.25,16.60999-13.76,7.26562-3.92138,15.33881-6.11164,23.59003-6.4,9.34143-.56734,18.68774,1.03088,27.30994,4.67001,6.18005,2.69,11.80005,6.53,17.51001,10.31,8.29004,5.49,16.76001,10.83,23.52002,17.83s11.90002,15.86,17.96997,23.86c2.08362,2.8563,4.45618,5.49022,7.07996,7.86,3.7948,3.21037,8.15637,5.68286,12.85999,7.28999,5.98389,1.97289,12.23035,3.03474,18.53003,3.14999,3.5249.18701,7.05969.01613,10.55005-.50999,3.47998-.58,6.85999-1.69,10.40002-2.36,1.51685-.3055,3.05444-.49605,4.59998-.57001.86951-.05676,1.7428-.00638,2.59998.14999.56812.04033,1.10327.28137,1.51001.68002ZM36.8598,18.39741c.00446-.32403-.08215-.6428-.25-.92-.16058-.28214-.37866-.52742-.64001-.72-.19098-.14299-.40369-.25441-.63-.33-.73682-.1917-1.5199-.07623-2.16998.32-.70703.46891-1.29578,1.0953-1.71997,1.83-.07928.11747-.10132.26444-.06.4.05096.12915.15753.22837.28998.27.18604.06395.37659.11409.57001.15.33649.04084.67041.10094,1,.18.53998.17,1,.61,1.57001.63.42004-.03269.81897-.19717,1.14001-.47.46594-.30499.7901-.78407.89996-1.33001v-.01Z" style="fill:#009619; stroke-width:0px;"/></svg>